<svg width="1175" height="827" viewBox="0 0 1175 827" fill="none" xmlns="http://www.w3.org/2000/svg">
<g filter="url(#filter0_d_1419_101)">
<g filter="url(#filter1_d_1419_101)">
<rect x="393" y="202" width="778" height="617" fill="#BBBFC0" fill-opacity="0.83" shape-rendering="crispEdges"/>
</g>
<g filter="url(#filter2_d_1419_101)">
<rect x="4" width="778" height="617" fill="#0B1C25"/>
</g>
<g filter="url(#filter3_d_1419_101)">
<rect x="130" y="80" width="938" height="620" fill="#1B3544"/>
</g>
<path d="M311.375 295.625C311.375 287.503 314.602 279.713 320.345 273.97C326.088 268.227 333.878 265 342 265C350.122 265 357.912 268.227 363.655 273.97C369.398 279.713 372.625 287.503 372.625 295.625C372.625 303.747 369.398 311.537 363.655 317.28C357.912 323.023 350.122 326.25 342 326.25C333.878 326.25 326.088 323.023 320.345 317.28C314.602 311.537 311.375 303.747 311.375 295.625ZM307 381.867C301.531 387.992 298.25 396.141 298.25 405C298.25 413.859 301.531 422.008 307 428.133V381.867ZM385.969 354.906C369.727 369.289 359.5 390.344 359.5 413.75C359.5 432.508 366.062 449.734 377 463.242V475C377 484.68 369.18 492.5 359.5 492.5H324.5C314.82 492.5 307 484.68 307 475V460.344C286.328 450.5 272 429.445 272 405C272 371.148 299.398 343.75 333.25 343.75H350.75C363.875 343.75 376.016 347.852 385.969 354.852V354.906ZM517 475V463.242C527.938 449.734 534.5 432.508 534.5 413.75C534.5 390.344 524.273 369.289 508.031 354.852C517.984 347.852 530.125 343.75 543.25 343.75H560.75C594.602 343.75 622 371.148 622 405C622 429.445 607.672 450.5 587 460.344V475C587 484.68 579.18 492.5 569.5 492.5H534.5C524.82 492.5 517 484.68 517 475ZM521.375 295.625C521.375 287.503 524.602 279.713 530.345 273.97C536.088 268.227 543.878 265 552 265C560.122 265 567.912 268.227 573.655 273.97C579.398 279.713 582.625 287.503 582.625 295.625C582.625 303.747 579.398 311.537 573.655 317.28C567.912 323.023 560.122 326.25 552 326.25C543.878 326.25 536.088 323.023 530.345 317.28C524.602 311.537 521.375 303.747 521.375 295.625ZM587 381.867V428.188C592.469 422.008 595.75 413.914 595.75 405.055C595.75 396.195 592.469 388.047 587 381.922V381.867ZM447 265C456.283 265 465.185 268.687 471.749 275.251C478.312 281.815 482 290.717 482 300C482 309.283 478.312 318.185 471.749 324.749C465.185 331.313 456.283 335 447 335C437.717 335 428.815 331.313 422.251 324.749C415.688 318.185 412 309.283 412 300C412 290.717 415.688 281.815 422.251 275.251C428.815 268.687 437.717 265 447 265ZM403.25 413.75C403.25 422.609 406.531 430.703 412 436.883V390.617C406.531 396.797 403.25 404.891 403.25 413.75ZM482 390.617V436.938C487.469 430.758 490.75 422.664 490.75 413.805C490.75 404.945 487.469 396.797 482 390.672V390.617ZM517 413.75C517 438.195 502.672 459.25 482 469.094V492.5C482 502.18 474.18 510 464.5 510H429.5C419.82 510 412 502.18 412 492.5V469.094C391.328 459.25 377 438.195 377 413.75C377 379.898 404.398 352.5 438.25 352.5H455.75C489.602 352.5 517 379.898 517 413.75Z" fill="white"/>
<path d="M764 275C751.854 275 742 284.868 742 297.031V487.969C742 500.132 751.854 510 764 510H808V473.281C808 461.118 817.854 451.25 830 451.25C842.146 451.25 852 461.118 852 473.281V510H896C908.146 510 918 500.132 918 487.969V297.031C918 284.868 908.146 275 896 275H764ZM771.333 385.156C771.333 381.117 774.633 377.812 778.667 377.812H793.333C797.367 377.812 800.667 381.117 800.667 385.156V399.844C800.667 403.883 797.367 407.188 793.333 407.188H778.667C774.633 407.188 771.333 403.883 771.333 399.844V385.156ZM822.667 377.812H837.333C841.367 377.812 844.667 381.117 844.667 385.156V399.844C844.667 403.883 841.367 407.188 837.333 407.188H822.667C818.633 407.188 815.333 403.883 815.333 399.844V385.156C815.333 381.117 818.633 377.812 822.667 377.812ZM859.333 385.156C859.333 381.117 862.633 377.812 866.667 377.812H881.333C885.367 377.812 888.667 381.117 888.667 385.156V399.844C888.667 403.883 885.367 407.188 881.333 407.188H866.667C862.633 407.188 859.333 403.883 859.333 399.844V385.156ZM778.667 319.062H793.333C797.367 319.062 800.667 322.367 800.667 326.406V341.094C800.667 345.133 797.367 348.438 793.333 348.438H778.667C774.633 348.438 771.333 345.133 771.333 341.094V326.406C771.333 322.367 774.633 319.062 778.667 319.062ZM815.333 326.406C815.333 322.367 818.633 319.062 822.667 319.062H837.333C841.367 319.062 844.667 322.367 844.667 326.406V341.094C844.667 345.133 841.367 348.438 837.333 348.438H822.667C818.633 348.438 815.333 345.133 815.333 341.094V326.406ZM866.667 319.062H881.333C885.367 319.062 888.667 322.367 888.667 326.406V341.094C888.667 345.133 885.367 348.438 881.333 348.438H866.667C862.633 348.438 859.333 345.133 859.333 341.094V326.406C859.333 322.367 862.633 319.062 866.667 319.062Z" fill="white"/>
</g>
<defs>
<filter id="filter0_d_1419_101" x="0" y="0" width="1175" height="827" filterUnits="userSpaceOnUse" color-interpolation-filters="sRGB">
<feFlood flood-opacity="0" result="BackgroundImageFix"/>
<feColorMatrix in="SourceAlpha" type="matrix" values="0 0 0 0 0 0 0 0 0 0 0 0 0 0 0 0 0 0 127 0" result="hardAlpha"/>
<feOffset dy="4"/>
<feGaussianBlur stdDeviation="2"/>
<feComposite in2="hardAlpha" operator="out"/>
<feColorMatrix type="matrix" values="0 0 0 0 0 0 0 0 0 0 0 0 0 0 0 0 0 0 0.25 0"/>
<feBlend mode="normal" in2="BackgroundImageFix" result="effect1_dropShadow_1419_101"/>
<feBlend mode="normal" in="SourceGraphic" in2="effect1_dropShadow_1419_101" result="shape"/>
</filter>
<filter id="filter1_d_1419_101" x="389" y="202" width="786" height="625" filterUnits="userSpaceOnUse" color-interpolation-filters="sRGB">
<feFlood flood-opacity="0" result="BackgroundImageFix"/>
<feColorMatrix in="SourceAlpha" type="matrix" values="0 0 0 0 0 0 0 0 0 0 0 0 0 0 0 0 0 0 127 0" result="hardAlpha"/>
<feOffset dy="4"/>
<feGaussianBlur stdDeviation="2"/>
<feComposite in2="hardAlpha" operator="out"/>
<feColorMatrix type="matrix" values="0 0 0 0 0 0 0 0 0 0 0 0 0 0 0 0 0 0 0.5 0"/>
<feBlend mode="normal" in2="BackgroundImageFix" result="effect1_dropShadow_1419_101"/>
<feBlend mode="normal" in="SourceGraphic" in2="effect1_dropShadow_1419_101" result="shape"/>
</filter>
<filter id="filter2_d_1419_101" x="0" y="0" width="786" height="625" filterUnits="userSpaceOnUse" color-interpolation-filters="sRGB">
<feFlood flood-opacity="0" result="BackgroundImageFix"/>
<feColorMatrix in="SourceAlpha" type="matrix" values="0 0 0 0 0 0 0 0 0 0 0 0 0 0 0 0 0 0 127 0" result="hardAlpha"/>
<feOffset dy="4"/>
<feGaussianBlur stdDeviation="2"/>
<feComposite in2="hardAlpha" operator="out"/>
<feColorMatrix type="matrix" values="0 0 0 0 0 0 0 0 0 0 0 0 0 0 0 0 0 0 0.5 0"/>
<feBlend mode="normal" in2="BackgroundImageFix" result="effect1_dropShadow_1419_101"/>
<feBlend mode="normal" in="SourceGraphic" in2="effect1_dropShadow_1419_101" result="shape"/>
</filter>
<filter id="filter3_d_1419_101" x="126" y="80" width="946" height="628" filterUnits="userSpaceOnUse" color-interpolation-filters="sRGB">
<feFlood flood-opacity="0" result="BackgroundImageFix"/>
<feColorMatrix in="SourceAlpha" type="matrix" values="0 0 0 0 0 0 0 0 0 0 0 0 0 0 0 0 0 0 127 0" result="hardAlpha"/>
<feOffset dy="4"/>
<feGaussianBlur stdDeviation="2"/>
<feComposite in2="hardAlpha" operator="out"/>
<feColorMatrix type="matrix" values="0 0 0 0 0 0 0 0 0 0 0 0 0 0 0 0 0 0 0.5 0"/>
<feBlend mode="normal" in2="BackgroundImageFix" result="effect1_dropShadow_1419_101"/>
<feBlend mode="normal" in="SourceGraphic" in2="effect1_dropShadow_1419_101" result="shape"/>
</filter>
</defs>
</svg>
