<svg width="246" height="197" viewBox="0 0 246 197" fill="none" xmlns="http://www.w3.org/2000/svg">
<g clip-path="url(#clip0_1033_107)">
<path d="M147.584 12.3128H196.532C203.3 12.3128 208.769 17.7947 208.769 24.58C208.769 31.3653 203.3 36.8472 196.532 36.8472H153.091C151.102 46.7377 144.333 54.9031 135.347 58.8132V171.787H196.532C203.3 171.787 208.769 177.269 208.769 184.054C208.769 190.839 203.3 196.321 196.532 196.321H123.11H49.6884C42.9198 196.321 37.4514 190.839 37.4514 184.054C37.4514 177.269 42.9198 171.787 49.6884 171.787H110.873V58.8132C101.887 54.8647 95.118 46.6994 93.1295 36.8472H49.6884C42.9198 36.8472 37.4514 31.3653 37.4514 24.58C37.4514 17.7947 42.9198 12.3128 49.6884 12.3128H98.6361C104.219 4.87576 113.091 0.0455322 123.11 0.0455322C133.129 0.0455322 142.001 4.87576 147.584 12.3128ZM168.846 122.718H224.218L196.532 75.1057L168.846 122.718ZM196.532 159.52C172.478 159.52 152.479 146.486 148.349 129.273C147.354 125.056 148.731 120.724 150.911 116.968L187.316 54.4047C189.228 51.1079 192.746 49.1145 196.532 49.1145C200.317 49.1145 203.836 51.1462 205.748 54.4047L242.153 116.968C244.332 120.724 245.709 125.056 244.715 129.273C240.585 146.486 220.585 159.52 196.532 159.52ZM49.2295 75.1057L21.5434 122.718H76.9538L49.2295 75.1057ZM1.08477 129.273C0.0905217 125.056 1.46718 120.724 3.64688 116.968L40.0518 54.4047C41.9638 51.1079 45.4819 49.1145 49.2677 49.1145C53.0535 49.1145 56.5717 51.1462 58.4837 54.4047L94.8886 116.968C97.0683 120.724 98.4449 125.056 97.4507 129.273C93.2825 146.486 73.2827 159.52 49.2295 159.52C25.1763 159.52 5.21474 146.486 1.08477 129.273Z" fill="#957EF9"/>
</g>
<defs>
<clipPath id="clip0_1033_107">
<rect width="244.739" height="196.276" fill="white" transform="translate(0.740234 0.0455322)"/>
</clipPath>
</defs>
</svg>
