<svg width="191" height="178" viewBox="0 0 191 178" fill="none" xmlns="http://www.w3.org/2000/svg">
<path d="M18.0077 76.5124C11.6326 76.5124 6.48496 71.3648 6.48496 64.9896C6.48496 64.2373 6.56415 63.5245 6.72254 62.7722C8.82119 54.4568 25.0164 0.48584 95.1826 0.48584C165.349 0.48584 181.544 54.4568 183.643 62.7722C183.841 63.5245 183.88 64.2373 183.88 64.9896C183.88 71.3648 178.733 76.5124 172.357 76.5124H18.0077ZM50.8338 38.4991C50.8338 36.8188 50.1663 35.2074 48.9781 34.0192C47.79 32.8311 46.1785 32.1636 44.4982 32.1636C42.8179 32.1636 41.2065 32.8311 40.0183 34.0192C38.8302 35.2074 38.1627 36.8188 38.1627 38.4991C38.1627 40.1794 38.8302 41.7909 40.0183 42.979C41.2065 44.1672 42.8179 44.8347 44.4982 44.8347C46.1785 44.8347 47.79 44.1672 48.9781 42.979C50.1663 41.7909 50.8338 40.1794 50.8338 38.4991ZM145.867 44.8347C147.547 44.8347 149.159 44.1672 150.347 42.979C151.535 41.7909 152.203 40.1794 152.203 38.4991C152.203 36.8188 151.535 35.2074 150.347 34.0192C149.159 32.8311 147.547 32.1636 145.867 32.1636C144.187 32.1636 142.575 32.8311 141.387 34.0192C140.199 35.2074 139.531 36.8188 139.531 38.4991C139.531 40.1794 140.199 41.7909 141.387 42.979C142.575 44.1672 144.187 44.8347 145.867 44.8347ZM101.518 25.828C101.518 24.1477 100.851 22.5363 99.6625 21.3481C98.4744 20.16 96.8629 19.4925 95.1826 19.4925C93.5023 19.4925 91.8909 20.16 90.7027 21.3481C89.5146 22.5363 88.8471 24.1477 88.8471 25.828C88.8471 27.5083 89.5146 29.1198 90.7027 30.3079C91.8909 31.4961 93.5023 32.1636 95.1826 32.1636C96.8629 32.1636 98.4744 31.4961 99.6625 30.3079C100.851 29.1198 101.518 27.5083 101.518 25.828ZM0.149414 108.19C0.149414 97.6969 8.6628 89.1835 19.1561 89.1835H171.209C181.702 89.1835 190.216 97.6969 190.216 108.19C190.216 118.683 181.702 127.197 171.209 127.197H19.1561C8.6628 127.197 0.149414 118.683 0.149414 108.19ZM6.48496 146.203C6.48496 142.719 9.33596 139.868 12.8205 139.868H177.545C181.029 139.868 183.88 142.719 183.88 146.203V152.539C183.88 166.517 172.516 177.881 158.538 177.881H31.8271C17.8493 177.881 6.48496 166.517 6.48496 152.539V146.203Z" fill="#957EF9"/>
</svg>
