<svg width="198" height="198" viewBox="0 0 198 198" fill="none" xmlns="http://www.w3.org/2000/svg">
<g clip-path="url(#clip0_1033_105)">
<path d="M96.1093 0.237793H102.268C107.388 0.237793 111.506 4.35653 111.506 9.47608V13.5948C142.455 18.7529 166.898 43.1958 172.056 74.1441H173.095C179.908 74.1441 185.413 79.6486 185.413 86.4618C185.413 93.275 179.908 98.7795 173.095 98.7795H25.2824C18.4692 98.7795 12.9647 93.275 12.9647 86.4618C12.9647 79.6486 18.4692 74.1441 25.2824 74.1441H26.3217C31.4798 43.1958 55.9227 18.7529 86.871 13.5948V9.47608C86.871 4.35653 90.9897 0.237793 96.1093 0.237793ZM25.2824 111.097H49.9178V160.368H65.315V111.097H89.9504V160.368H108.427V111.097H133.062V160.368H148.46V111.097H173.095V162.023C173.326 162.139 173.557 162.293 173.749 162.447L192.226 174.764C196.73 177.767 198.77 183.387 197.192 188.583C195.613 193.78 190.84 197.321 185.413 197.321H12.9647C7.5372 197.321 2.76408 193.78 1.18587 188.583C-0.392334 183.387 1.60929 177.767 6.15145 174.764L24.628 162.447C24.859 162.293 25.0899 162.177 25.3209 162.023V111.097H25.2824Z" fill="#957EF9"/>
</g>
<defs>
<clipPath id="clip0_1033_105">
<rect width="197.083" height="197.083" fill="white" transform="translate(0.646484 0.237793)"/>
</clipPath>
</defs>
</svg>
