<svg width="203" height="204" viewBox="0 0 203 204" fill="none" xmlns="http://www.w3.org/2000/svg">
<path d="M103.194 10.509C97.87 11.8157 92.7824 13.3599 87.9707 15.1418C61.9407 24.8431 43.7197 41.4739 31.6118 61.2725C24.3944 73.0725 19.4251 85.9416 16.1516 99.0482L109.899 193.131C115.223 191.824 120.311 190.28 125.123 188.498C151.153 178.797 169.374 162.166 181.482 142.368C188.699 130.568 193.668 117.698 196.902 104.631L103.194 10.509ZM200.886 81.7443C203.292 59.2531 201.438 37.3162 197.849 19.8143C196.784 14.7063 192.722 10.7465 187.555 9.8754C164.602 6.03447 144.211 5.12374 126.188 6.74722L200.886 81.7443ZM86.8665 196.853L12.2077 121.896C9.80185 144.387 11.6555 166.324 15.2445 183.826C16.3094 188.934 20.3716 192.894 25.5382 193.765C48.4919 197.606 68.8821 198.516 86.9059 196.893L86.8665 196.853ZM108.4 65.6678C110.846 63.2128 114.868 63.2128 117.314 65.6678L142.555 91.01C145 93.465 145 97.5039 142.555 99.959C140.11 102.414 136.087 102.414 133.642 99.959L108.4 74.6168C105.955 72.1617 105.955 68.1228 108.4 65.6678ZM89.4695 84.6744C91.9147 82.2194 95.9375 82.2194 98.3828 84.6744L123.624 110.017C126.069 112.472 126.069 116.511 123.624 118.966C121.179 121.421 117.156 121.421 114.711 118.966L89.4695 93.6234C87.0242 91.1684 87.0242 87.1295 89.4695 84.6744ZM70.5385 103.681C72.9838 101.226 77.0066 101.226 79.4518 103.681L104.693 129.023C107.138 131.478 107.138 135.517 104.693 137.972C102.248 140.427 98.225 140.427 95.7798 137.972L70.5385 112.63C68.0933 110.175 68.0933 106.136 70.5385 103.681Z" fill="#957EF9"/>
</svg>
