<svg width="234" height="187" viewBox="0 0 234 187" fill="none" xmlns="http://www.w3.org/2000/svg">
<path d="M70.2 23C31.4438 23 0 54.4102 0 93.125C0 131.84 31.4438 163.25 70.2 163.25H163.8C202.556 163.25 234 131.84 234 93.125C234 54.4102 202.556 23 163.8 23H70.2ZM181.35 60.9844C185.229 60.9844 188.949 62.5236 191.691 65.2634C194.434 68.0032 195.975 71.7191 195.975 75.5938C195.975 79.4684 194.434 83.1843 191.691 85.9241C188.949 88.6639 185.229 90.2031 181.35 90.2031C177.471 90.2031 173.751 88.6639 171.009 85.9241C168.266 83.1843 166.725 79.4684 166.725 75.5938C166.725 71.7191 168.266 68.0032 171.009 65.2634C173.751 62.5236 177.471 60.9844 181.35 60.9844ZM143.325 110.656C143.325 106.782 144.866 103.066 147.609 100.326C150.351 97.5861 154.071 96.0469 157.95 96.0469C161.829 96.0469 165.549 97.5861 168.291 100.326C171.034 103.066 172.575 106.782 172.575 110.656C172.575 114.531 171.034 118.247 168.291 120.987C165.549 123.726 161.829 125.266 157.95 125.266C154.071 125.266 150.351 123.726 147.609 120.987C144.866 118.247 143.325 114.531 143.325 110.656ZM61.425 72.6719C61.425 67.8143 65.3372 63.9062 70.2 63.9062C75.0628 63.9062 78.975 67.8143 78.975 72.6719V84.3594H90.675C95.5378 84.3594 99.45 88.2674 99.45 93.125C99.45 97.9826 95.5378 101.891 90.675 101.891H78.975V113.578C78.975 118.436 75.0628 122.344 70.2 122.344C65.3372 122.344 61.425 118.436 61.425 113.578V101.891H49.725C44.8622 101.891 40.95 97.9826 40.95 93.125C40.95 88.2674 44.8622 84.3594 49.725 84.3594H61.425V72.6719Z" fill="#957EF9"/>
</svg>
