<svg width="105" height="66" viewBox="0 0 105 66" fill="none" xmlns="http://www.w3.org/2000/svg">
<path d="M63.2485 27.8941C63.5535 29.5389 63.7737 31.1838 63.7737 33.3203C63.7737 51.9221 51.3036 65.1145 32.5307 65.1145C14.5541 65.1145 0 50.5486 0 32.5573C0 14.566 14.5541 0 32.5307 0C41.3241 0 48.6436 3.20486 54.3195 8.52933L45.4921 17.0078C43.1032 14.7016 38.8843 11.9885 32.5307 11.9885C21.433 11.9885 12.3854 21.1792 12.3854 32.5573C12.3854 43.9354 21.433 53.126 32.5307 53.126C45.4074 53.126 50.2362 43.8506 50.9986 39.0857H32.5307V27.8941H63.2485ZM94.6609 28.9794V19.5344H85.1728V28.9794H75.7355V38.4752H85.1728V47.9202H94.6609V38.4752H104.098V28.9794H94.6609Z" fill="white"/>
</svg>
