<svg width="87" height="91" viewBox="0 0 87 91" fill="none" xmlns="http://www.w3.org/2000/svg">
<path d="M50.3578 26.5041C40.6484 26.8652 16.5644 29.6137 16.5644 50.0766C16.5644 72.0442 44.1374 72.9469 53.149 58.7432C54.4449 60.7895 60.2067 66.2664 62.1805 68.1321L73.5048 56.8976C73.5048 56.8976 67.0651 51.822 67.0651 46.305V16.7942C67.0651 11.7186 62.1805 0.283447 44.6757 0.283447C27.1311 0.283447 17.8205 11.3174 17.8205 21.2078L32.4742 22.572C35.724 12.6415 43.2801 12.6415 43.2801 12.6415C51.3945 12.6214 50.3578 18.6198 50.3578 26.5041ZM50.3578 43.9176C50.3578 59.967 33.5708 57.5596 33.5708 47.3683C33.5708 37.8991 43.639 35.9933 50.3578 35.7726V43.9176ZM77.4722 76.7185C75.9371 78.7247 63.5163 90.1599 42.682 90.1599C21.8478 90.1599 5.89808 75.8158 1.01349 69.8975C-0.34223 68.3528 1.21286 67.6306 2.11003 68.2324C16.7239 77.1599 39.5519 91.8651 76.3757 74.3111C77.871 73.5688 79.0273 74.7124 77.4722 76.7185ZM85.4072 77.1599C84.1113 80.3296 82.2173 82.5364 81.1805 83.379C80.084 84.2818 79.2865 83.9207 79.8846 82.6167C80.4827 81.3127 83.7325 73.288 82.4166 71.5827C81.1207 69.9176 75.0399 70.7201 72.8468 70.9408C70.6936 71.1414 70.255 71.342 70.0556 70.8806C69.5971 69.7371 74.382 67.771 77.5321 67.3698C80.6622 67.0087 85.7063 67.2093 86.7031 68.5133C87.4408 69.5364 86.7031 73.95 85.4072 77.1599Z" fill="white"/>
</svg>
