<svg width="68" height="79" viewBox="0 0 68 79" fill="none" xmlns="http://www.w3.org/2000/svg">
<path d="M67.784 32.5332C61.1987 32.5475 54.7755 30.4688 49.422 26.5909V53.6263C49.4205 58.6333 47.9071 63.5206 45.0844 67.6344C42.2616 71.7482 38.264 74.8924 33.6262 76.6465C28.9885 78.4006 23.9316 78.6809 19.132 77.4501C14.3323 76.2192 10.0188 73.5358 6.76815 69.7588C3.51754 65.9817 1.48488 61.2911 0.941999 56.3142C0.399124 51.3373 1.37192 46.3114 3.73029 41.9087C6.08866 37.5061 9.72016 33.9365 14.1391 31.6774C18.5581 29.4183 23.5538 28.5774 28.4581 29.2672V42.8605C26.2156 42.1467 23.8074 42.1675 21.5773 42.9202C19.3472 43.6728 17.4093 45.1187 16.0403 47.0514C14.6712 48.9841 13.9411 51.3049 13.9541 53.6822C13.9671 56.0595 14.7225 58.3719 16.1126 60.2892C17.5027 62.2065 19.4563 63.6307 21.6945 64.3583C23.9327 65.086 26.341 65.08 28.5756 64.3411C30.8102 63.6022 32.7567 62.1683 34.1374 60.244C35.5181 58.3198 36.2622 56.0036 36.2635 53.6263V0.79541H49.422C49.4146 1.92077 49.5097 3.04443 49.7061 4.15215C50.1637 6.62132 51.1144 8.9702 52.5002 11.0552C53.8859 13.1403 55.6776 14.9176 57.7657 16.2787C60.7379 18.2638 64.222 19.3208 67.784 19.318V32.5332Z" fill="white"/>
</svg>
