<svg width="142" height="142" viewBox="0 0 142 142" fill="none" xmlns="http://www.w3.org/2000/svg">
<g clip-path="url(#clip0_1368_95)">
<path d="M44.375 102.062C51.7246 102.062 57.6875 108.025 57.6875 115.375V119.812L77.7949 104.725C80.0969 103.005 82.898 102.062 85.7824 102.062H124.25C126.691 102.062 128.688 100.066 128.688 97.625V17.75C128.688 15.3094 126.691 13.3125 124.25 13.3125H17.75C15.3094 13.3125 13.3125 15.3094 13.3125 17.75V97.625C13.3125 100.066 15.3094 102.062 17.75 102.062H44.375ZM57.6875 136.453L57.632 136.509L56.2176 137.562L51.475 141.113C50.1438 142.111 48.341 142.277 46.8156 141.529C45.2902 140.78 44.375 139.254 44.375 137.562V131.655V129.88V129.797V128.688V115.375H31.0625H17.75C7.95977 115.375 0 107.415 0 97.625V17.75C0 7.95977 7.95977 0 17.75 0H124.25C134.04 0 142 7.95977 142 17.75V97.625C142 107.415 134.04 115.375 124.25 115.375H85.7824L57.6875 136.453Z" fill="#FCF1F1"/>
</g>
<defs>
<clipPath id="clip0_1368_95">
<rect width="142" height="142" fill="white"/>
</clipPath>
</defs>
</svg>
